<?xml version="1.0" encoding="UTF-8" standalone="no"?>
<!DOCTYPE svg PUBLIC "-//W3C//DTD SVG 1.1//EN" "http://www.w3.org/Graphics/SVG/1.1/DTD/svg11.dtd">
<svg width="100%" height="100%" viewBox="0 0 200 200" version="1.1" xmlns="http://www.w3.org/2000/svg" xmlns:xlink="http://www.w3.org/1999/xlink" xml:space="preserve" xmlns:serif="http://www.serif.com/" style="fill-rule:evenodd;clip-rule:evenodd;stroke-linecap:round;stroke-linejoin:round;stroke-miterlimit:1.5;">
    <g transform="matrix(0.944959,0,0,1.01021,9.7921,-12.3363)">
        <path d="M125.412,147.522L64.819,146.548C65.508,129.122 68.242,106.247 71.347,89.147C88.511,72.753 103.633,74.966 119.064,88.935C121.874,104.082 124.144,126.897 125.412,147.522Z" style="fill:rgb(221,219,219);stroke:rgb(35,31,32);stroke-width:8.52px;"/>
    </g>
    <g transform="matrix(0.944959,0,0,1.01021,9.7921,-12.3363)">
        <path d="M53.132,165.594L137.307,165.645L137.792,154.801C136.326,147.114 131.254,142.621 122.403,141.476C105.016,139.834 87.108,139.463 68.198,141.535C61.281,142.537 55.929,145.375 53.509,151.652L53.132,165.594Z" style="fill:rgb(221,219,219);stroke:rgb(35,31,32);stroke-width:8.52px;"/>
    </g>
    <g transform="matrix(1.02303,0,0,1.01021,1.96208,-12.3131)">
        <path d="M73.917,60.052C74.139,65.252 74.939,69.657 76.418,73.126L83.952,73.479C83.311,67.904 84.084,62.85 85.692,58.103C91.942,56.299 98.192,56.363 104.442,57.794C106.374,63.463 106.586,68.948 105.565,74.301L114.033,73.95C115.965,69.832 116.733,65.027 116.604,59.693C121.915,59.697 126.777,60.74 131.026,63.203C131.713,70.618 131.033,77.791 128.702,84.672C128.298,90.227 123.878,92.073 117.074,93.268C110.277,91.259 103.052,91.35 94.786,91.244C85.999,91.826 77.4,92.634 68.96,93.634C65.308,91.98 62.698,88.62 61.182,83.472C59.541,77.248 59.117,70.551 59.703,63.462C63.814,61.178 68.614,60.154 73.917,60.052Z" style="fill:rgb(221,219,219);stroke:rgb(35,31,32);stroke-width:8.2px;"/>
    </g>
</svg>
