<?xml version="1.0" encoding="UTF-8" standalone="no"?><!DOCTYPE svg PUBLIC "-//W3C//DTD SVG 1.1//EN" "http://www.w3.org/Graphics/SVG/1.1/DTD/svg11.dtd"><svg width="100%" height="100%" viewBox="0 0 3200 3200" version="1.1" xmlns="http://www.w3.org/2000/svg" xmlns:xlink="http://www.w3.org/1999/xlink" xml:space="preserve" xmlns:serif="http://www.serif.com/" style="fill-rule:evenodd;clip-rule:evenodd;stroke-linecap:round;stroke-linejoin:round;stroke-miterlimit:1.5;"><g id="Layer1"><path d="M2715.7,2837.5c-69.189,-13.207 -114.005,-56.03 -121.875,-143.75c-12.306,-142.38 -30.77,-284.173 -59.375,-425c26.619,7.257 54.844,-0.996 84.375,-21.875c121.548,-63.759 237.006,-166.494 343.75,-325c49.649,-82.949 34.447,-153.051 -18.75,-215.625c-40.862,-56.044 -82.099,-111.965 -115.625,-171.875c-22.768,-29.448 -13.268,-51.116 -0,-71.875c58.455,-135.475 3.247,-294.783 -121.875,-468.75c-12.407,-5.915 -23.831,-4.62 -34.375,3.125c-59.812,88.161 -114.312,178.28 -159.375,271.875c-5.956,10.168 -16.778,18.713 -34.375,25c-76.454,11.312 -152.448,28.598 -228.125,50c-10.4,5.548 -22.77,1.741 -40.625,-28.125c-16.003,-32.829 -35.922,-64.026 -59.375,-93.75c-120.785,-221.936 -236.619,-344.878 -350,-418.75c-12.671,-3.413 -20.133,0.514 -21.875,12.5c-1.413,19 0.708,37.747 6.25,56.25c-0.776,12.447 -4.849,13.805 -12.5,3.125c-65.737,-110.526 -154.614,-185.405 -256.25,-240.625c-8.92,0.467 -15.653,5.67 -18.75,18.75c4.804,22.883 13.404,44.682 25,65.625c-75.874,-67.534 -172.605,-93.916 -284.375,-90.625c-10.796,3.585 -19.034,8.753 -9.375,25c11.057,17.123 29.455,30.293 53.125,40.625c-94.133,-3.298 -180.766,21.056 -259.375,75c-14.824,11.725 -18.167,22.436 -0,31.25c11.715,5.443 32.35,7.599 62.5,6.25c-80.326,19.662 -157.716,64.906 -231.25,143.75c-6.197,10.295 -5.018,19.77 6.25,28.125c13.925,2.023 35.729,-1.469 59.375,-6.25c-67.447,39.543 -125.136,91.362 -162.5,168.75c-9.342,10.823 -9.208,19.581 6.25,25c18.569,-0.156 37.362,-6.564 56.25,-15.625c-71.951,101.029 -130.068,204.364 -159.375,312.5c-187.818,-281.191 -305.897,-575.409 -278.125,-896.875c64.362,-254.641 189.362,-303.599 375,-146.875c44.564,53.776 95.365,62.79 153.125,21.875c31.383,-36.005 37.168,-72.593 34.375,-109.375c-123.514,-273.069 -314.92,-363.987 -628.125,-128.125c-234.752,442.809 -198.451,935.404 246.875,1503.12c82.976,170.41 119.212,345.677 56.25,531.25c-39.069,166.436 -35.696,332.335 75,496.875c36.776,78.215 81.319,155.46 137.5,231.25c135.61,46.691 224.66,37.509 287.5,-3.125c37.506,-15.109 22.9,-51.633 -28.125,-103.125c-173.209,-139.554 -201.9,-257.929 -93.75,-356.25c57.576,122.253 117.609,240.574 181.25,353.125c31.562,80.033 66.197,131.964 106.25,134.375c53.547,2.167 109.836,1.986 171.875,-3.125c120.147,-22.861 133.781,-79.701 56.25,-165.625c-67.981,-41.044 -118.217,-78.033 -143.75,-109.375c-33.61,-74.155 -28.967,-145.122 -18.75,-215.625c21.381,-99.979 13.418,-179.642 -12.5,-246.875c-13.77,-18.858 -17.623,-40.004 -15.625,-62.5c67.154,-84.708 144.691,-126.584 231.25,-131.25c102.945,5.044 165.622,44.765 181.25,125c21.839,79.332 56.003,156.769 109.375,231.25c49.482,81.566 84.66,168.107 106.25,259.375c23.26,61.807 39.57,127.09 53.125,193.75c3.68,105.119 33.682,170.572 106.25,171.875c86.121,1.375 164.747,-17.091 234.375,-59.375c49.716,-57.943 32.978,-98.431 -25,-115.625c-75.74,-1.656 -121.27,-39.906 -128.125,-125c-0.133,-84.929 -2.237,-170.351 -6.25,-256.25c47.01,9.057 82.089,0.218 106.25,-25c61.751,154.316 113.447,310.644 156.25,468.75c29.199,58.902 63.466,91.022 106.25,78.125c62.354,-0.474 120.407,-14.926 175,-40.625c60.038,-40.909 62.178,-82.501 -12.5,-125Z" style="stroke:#000;stroke-width:3.13px;"/><path d="M2593.83,1759.38c-2.625,-43.206 11.414,-84.826 40.625,-125c88.161,121.885 130.454,119.269 112.5,-46.875c48.533,29.265 81.237,65.902 18.75,146.875c-64.407,47.07 -121.112,52.211 -171.875,25Z" style="fill:#f7f274;"/><path d="M2163.98,1838.19c7.108,-41.917 35.065,-76.923 82.005,-105.635c82.853,144.441 137.377,155.67 154.69,-8.07c54.764,43.556 87.574,88.985 -11.638,145.683c-93.456,23.852 -166.955,10.349 -225.057,-31.978Z" style="fill:#f7f274;"/></g></svg>